STARTFONT 2.1
COMMENT Trimmed to U+0400..U+045F for the panel by tools/fonts/mksysfont.py
COMMENT Source: https://gitlab.freedesktop.org/xorg/font/misc-misc/-/raw/master/4x6.bdf
COMMENT Fetched 2026-09-23. The font is in the public domain (its COPYRIGHT property).
COMMENT Contributed by Janne V. Kujala <jvk@iki.fi>
COMMENT $ucs-fonts: 4x6.bdf,v 1.5 2002-08-26 18:05:49+01 mgk25 Rel $
COMMENT Send bug reports to Markus Kuhn <http://www.cl.cam.ac.uk/~mgk25/>
FONT -Misc-Fixed-Medium-R-Normal--6-60-75-75-C-40-ISO10646-1
SIZE 6 75 75
FONTBOUNDINGBOX 4 6 0 -1
STARTPROPERTIES 23
FONTNAME_REGISTRY ""
FOUNDRY "Misc"
FAMILY_NAME "Fixed"
WEIGHT_NAME "Medium"
SLANT "R"
SETWIDTH_NAME "Normal"
ADD_STYLE_NAME ""
PIXEL_SIZE 6
POINT_SIZE 60
RESOLUTION_X 75
RESOLUTION_Y 75
SPACING "C"
AVERAGE_WIDTH 40
CHARSET_REGISTRY "ISO10646"
CHARSET_ENCODING "1"
FONT_ASCENT 5
FONT_DESCENT 1
DESTINATION 1
COPYRIGHT "Public domain font.  Share and enjoy."
_XMBDFED_INFO "Edited with xmbdfed 4.3."
CAP_HEIGHT 5
X_HEIGHT 4
DEFAULT_CHAR 0
ENDPROPERTIES
CHARS 92
STARTCHAR afii10023
ENCODING 1025
SWIDTH 640 0
DWIDTH 4 0
BBX 4 6 0 -1
BITMAP
A0
E0
C0
80
E0
00
ENDCHAR
STARTCHAR afii10051
ENCODING 1026
SWIDTH 640 0
DWIDTH 4 0
BBX 4 6 0 -1
BITMAP
E0
80
C0
A0
A0
00
ENDCHAR
STARTCHAR afii10052
ENCODING 1027
SWIDTH 640 0
DWIDTH 4 0
BBX 4 6 0 -1
BITMAP
20
E0
80
80
80
00
ENDCHAR
STARTCHAR afii10053
ENCODING 1028
SWIDTH 640 0
DWIDTH 4 0
BBX 4 6 0 -1
BITMAP
60
80
C0
80
60
00
ENDCHAR
STARTCHAR afii10054
ENCODING 1029
SWIDTH 640 0
DWIDTH 4 0
BBX 4 6 0 -1
BITMAP
60
80
40
20
C0
00
ENDCHAR
STARTCHAR afii10055
ENCODING 1030
SWIDTH 640 0
DWIDTH 4 0
BBX 4 6 0 -1
BITMAP
E0
40
40
40
E0
00
ENDCHAR
STARTCHAR afii10056
ENCODING 1031
SWIDTH 640 0
DWIDTH 4 0
BBX 4 6 0 -1
BITMAP
A0
E0
40
40
E0
00
ENDCHAR
STARTCHAR afii10057
ENCODING 1032
SWIDTH 640 0
DWIDTH 4 0
BBX 4 6 0 -1
BITMAP
20
20
20
A0
40
00
ENDCHAR
STARTCHAR afii10058
ENCODING 1033
SWIDTH 640 0
DWIDTH 4 0
BBX 4 6 0 -1
BITMAP
E0
60
A0
B0
B0
00
ENDCHAR
STARTCHAR afii10059
ENCODING 1034
SWIDTH 640 0
DWIDTH 4 0
BBX 4 6 0 -1
BITMAP
A0
A0
E0
B0
B0
00
ENDCHAR
STARTCHAR afii10060
ENCODING 1035
SWIDTH 640 0
DWIDTH 4 0
BBX 4 6 0 -1
BITMAP
C0
80
C0
A0
A0
00
ENDCHAR
STARTCHAR afii10061
ENCODING 1036
SWIDTH 640 0
DWIDTH 4 0
BBX 4 6 0 -1
BITMAP
20
80
A0
C0
A0
00
ENDCHAR
STARTCHAR afii10062
ENCODING 1038
SWIDTH 640 0
DWIDTH 4 0
BBX 4 6 0 -1
BITMAP
A0
40
00
A0
40
80
ENDCHAR
STARTCHAR afii10145
ENCODING 1039
SWIDTH 640 0
DWIDTH 4 0
BBX 4 6 0 -1
BITMAP
A0
A0
A0
A0
E0
40
ENDCHAR
STARTCHAR afii10017
ENCODING 1040
SWIDTH 640 0
DWIDTH 4 0
BBX 4 6 0 -1
BITMAP
40
A0
E0
A0
A0
00
ENDCHAR
STARTCHAR afii10018
ENCODING 1041
SWIDTH 640 0
DWIDTH 4 0
BBX 4 6 0 -1
BITMAP
E0
80
C0
A0
C0
00
ENDCHAR
STARTCHAR afii10019
ENCODING 1042
SWIDTH 640 0
DWIDTH 4 0
BBX 4 6 0 -1
BITMAP
C0
A0
C0
A0
C0
00
ENDCHAR
STARTCHAR afii10020
ENCODING 1043
SWIDTH 640 0
DWIDTH 4 0
BBX 4 6 0 -1
BITMAP
E0
80
80
80
80
00
ENDCHAR
STARTCHAR afii10021
ENCODING 1044
SWIDTH 640 0
DWIDTH 4 0
BBX 4 6 0 -1
BITMAP
E0
60
A0
A0
E0
A0
ENDCHAR
STARTCHAR afii10022
ENCODING 1045
SWIDTH 640 0
DWIDTH 4 0
BBX 4 6 0 -1
BITMAP
E0
80
C0
80
E0
00
ENDCHAR
STARTCHAR afii10024
ENCODING 1046
SWIDTH 640 0
DWIDTH 4 0
BBX 4 6 0 -1
BITMAP
A0
E0
40
E0
A0
00
ENDCHAR
STARTCHAR afii10025
ENCODING 1047
SWIDTH 640 0
DWIDTH 4 0
BBX 4 6 0 -1
BITMAP
C0
20
40
20
C0
00
ENDCHAR
STARTCHAR afii10026
ENCODING 1048
SWIDTH 640 0
DWIDTH 4 0
BBX 4 6 0 -1
BITMAP
80
A0
E0
A0
20
00
ENDCHAR
STARTCHAR afii10027
ENCODING 1049
SWIDTH 640 0
DWIDTH 4 0
BBX 4 6 0 -1
BITMAP
60
80
A0
E0
A0
20
ENDCHAR
STARTCHAR afii10028
ENCODING 1050
SWIDTH 640 0
DWIDTH 4 0
BBX 4 6 0 -1
BITMAP
A0
A0
C0
A0
A0
00
ENDCHAR
STARTCHAR afii10029
ENCODING 1051
SWIDTH 640 0
DWIDTH 4 0
BBX 4 6 0 -1
BITMAP
60
A0
A0
A0
A0
00
ENDCHAR
STARTCHAR afii10030
ENCODING 1052
SWIDTH 640 0
DWIDTH 4 0
BBX 4 6 0 -1
BITMAP
A0
E0
A0
A0
A0
00
ENDCHAR
STARTCHAR afii10031
ENCODING 1053
SWIDTH 640 0
DWIDTH 4 0
BBX 4 6 0 -1
BITMAP
A0
A0
E0
A0
A0
00
ENDCHAR
STARTCHAR afii10032
ENCODING 1054
SWIDTH 640 0
DWIDTH 4 0
BBX 4 6 0 -1
BITMAP
40
A0
A0
A0
40
00
ENDCHAR
STARTCHAR afii10033
ENCODING 1055
SWIDTH 640 0
DWIDTH 4 0
BBX 4 6 0 -1
BITMAP
E0
A0
A0
A0
A0
00
ENDCHAR
STARTCHAR afii10034
ENCODING 1056
SWIDTH 640 0
DWIDTH 4 0
BBX 4 6 0 -1
BITMAP
C0
A0
C0
80
80
00
ENDCHAR
STARTCHAR afii10035
ENCODING 1057
SWIDTH 640 0
DWIDTH 4 0
BBX 4 6 0 -1
BITMAP
40
A0
80
A0
40
00
ENDCHAR
STARTCHAR afii10036
ENCODING 1058
SWIDTH 640 0
DWIDTH 4 0
BBX 4 6 0 -1
BITMAP
E0
40
40
40
40
00
ENDCHAR
STARTCHAR afii10037
ENCODING 1059
SWIDTH 640 0
DWIDTH 4 0
BBX 4 6 0 -1
BITMAP
A0
A0
A0
40
40
80
ENDCHAR
STARTCHAR afii10038
ENCODING 1060
SWIDTH 640 0
DWIDTH 4 0
BBX 4 6 0 -1
BITMAP
40
E0
A0
E0
40
00
ENDCHAR
STARTCHAR afii10039
ENCODING 1061
SWIDTH 640 0
DWIDTH 4 0
BBX 4 6 0 -1
BITMAP
A0
A0
40
A0
A0
00
ENDCHAR
STARTCHAR afii10040
ENCODING 1062
SWIDTH 640 0
DWIDTH 4 0
BBX 4 6 0 -1
BITMAP
A0
A0
A0
A0
E0
00
ENDCHAR
STARTCHAR afii10041
ENCODING 1063
SWIDTH 640 0
DWIDTH 4 0
BBX 4 6 0 -1
BITMAP
A0
A0
60
20
20
00
ENDCHAR
STARTCHAR afii10042
ENCODING 1064
SWIDTH 640 0
DWIDTH 4 0
BBX 4 6 0 -1
BITMAP
A0
A0
E0
E0
E0
00
ENDCHAR
STARTCHAR afii10043
ENCODING 1065
SWIDTH 640 0
DWIDTH 4 0
BBX 4 6 0 -1
BITMAP
A0
A0
E0
E0
F0
10
ENDCHAR
STARTCHAR afii10044
ENCODING 1066
SWIDTH 640 0
DWIDTH 4 0
BBX 4 6 0 -1
BITMAP
C0
40
60
50
60
00
ENDCHAR
STARTCHAR afii10045
ENCODING 1067
SWIDTH 640 0
DWIDTH 4 0
BBX 4 6 0 -1
BITMAP
90
90
D0
B0
D0
00
ENDCHAR
STARTCHAR afii10046
ENCODING 1068
SWIDTH 640 0
DWIDTH 4 0
BBX 4 6 0 -1
BITMAP
80
80
C0
A0
C0
00
ENDCHAR
STARTCHAR afii10047
ENCODING 1069
SWIDTH 640 0
DWIDTH 4 0
BBX 4 6 0 -1
BITMAP
C0
20
60
20
C0
00
ENDCHAR
STARTCHAR afii10048
ENCODING 1070
SWIDTH 640 0
DWIDTH 4 0
BBX 4 6 0 -1
BITMAP
A0
D0
D0
D0
A0
00
ENDCHAR
STARTCHAR afii10049
ENCODING 1071
SWIDTH 640 0
DWIDTH 4 0
BBX 4 6 0 -1
BITMAP
60
A0
60
A0
A0
00
ENDCHAR
STARTCHAR afii10065
ENCODING 1072
SWIDTH 640 0
DWIDTH 4 0
BBX 4 6 0 -1
BITMAP
00
60
A0
A0
60
00
ENDCHAR
STARTCHAR afii10066
ENCODING 1073
SWIDTH 640 0
DWIDTH 4 0
BBX 4 6 0 -1
BITMAP
60
80
E0
A0
40
00
ENDCHAR
STARTCHAR afii10067
ENCODING 1074
SWIDTH 640 0
DWIDTH 4 0
BBX 4 6 0 -1
BITMAP
00
E0
C0
A0
C0
00
ENDCHAR
STARTCHAR afii10068
ENCODING 1075
SWIDTH 640 0
DWIDTH 4 0
BBX 4 6 0 -1
BITMAP
00
E0
80
80
80
00
ENDCHAR
STARTCHAR afii10069
ENCODING 1076
SWIDTH 640 0
DWIDTH 4 0
BBX 4 6 0 -1
BITMAP
00
60
A0
A0
E0
A0
ENDCHAR
STARTCHAR afii10070
ENCODING 1077
SWIDTH 640 0
DWIDTH 4 0
BBX 4 6 0 -1
BITMAP
00
40
A0
C0
60
00
ENDCHAR
STARTCHAR afii10072
ENCODING 1078
SWIDTH 640 0
DWIDTH 4 0
BBX 4 6 0 -1
BITMAP
00
B0
60
60
B0
00
ENDCHAR
STARTCHAR afii10073
ENCODING 1079
SWIDTH 640 0
DWIDTH 4 0
BBX 4 6 0 -1
BITMAP
00
E0
40
20
C0
00
ENDCHAR
STARTCHAR afii10074
ENCODING 1080
SWIDTH 640 0
DWIDTH 4 0
BBX 4 6 0 -1
BITMAP
00
A0
E0
E0
A0
00
ENDCHAR
STARTCHAR afii10075
ENCODING 1081
SWIDTH 640 0
DWIDTH 4 0
BBX 4 6 0 -1
BITMAP
A0
40
A0
E0
A0
00
ENDCHAR
STARTCHAR afii10076
ENCODING 1082
SWIDTH 640 0
DWIDTH 4 0
BBX 4 6 0 -1
BITMAP
00
A0
A0
C0
A0
00
ENDCHAR
STARTCHAR afii10077
ENCODING 1083
SWIDTH 640 0
DWIDTH 4 0
BBX 4 6 0 -1
BITMAP
00
60
A0
A0
A0
00
ENDCHAR
STARTCHAR afii10078
ENCODING 1084
SWIDTH 640 0
DWIDTH 4 0
BBX 4 6 0 -1
BITMAP
00
A0
E0
A0
A0
00
ENDCHAR
STARTCHAR afii10079
ENCODING 1085
SWIDTH 640 0
DWIDTH 4 0
BBX 4 6 0 -1
BITMAP
00
A0
E0
A0
A0
00
ENDCHAR
STARTCHAR afii10080
ENCODING 1086
SWIDTH 640 0
DWIDTH 4 0
BBX 4 6 0 -1
BITMAP
00
40
A0
A0
40
00
ENDCHAR
STARTCHAR afii10081
ENCODING 1087
SWIDTH 640 0
DWIDTH 4 0
BBX 4 6 0 -1
BITMAP
00
E0
A0
A0
A0
00
ENDCHAR
STARTCHAR afii10082
ENCODING 1088
SWIDTH 640 0
DWIDTH 4 0
BBX 4 6 0 -1
BITMAP
00
C0
A0
C0
80
80
ENDCHAR
STARTCHAR afii10083
ENCODING 1089
SWIDTH 640 0
DWIDTH 4 0
BBX 4 6 0 -1
BITMAP
00
60
80
80
60
00
ENDCHAR
STARTCHAR afii10084
ENCODING 1090
SWIDTH 640 0
DWIDTH 4 0
BBX 4 6 0 -1
BITMAP
00
E0
40
40
40
00
ENDCHAR
STARTCHAR afii10085
ENCODING 1091
SWIDTH 640 0
DWIDTH 4 0
BBX 4 6 0 -1
BITMAP
00
A0
A0
60
20
C0
ENDCHAR
STARTCHAR afii10086
ENCODING 1092
SWIDTH 640 0
DWIDTH 4 0
BBX 4 6 0 -1
BITMAP
40
40
A0
A0
40
40
ENDCHAR
STARTCHAR afii10087
ENCODING 1093
SWIDTH 640 0
DWIDTH 4 0
BBX 4 6 0 -1
BITMAP
00
A0
40
40
A0
00
ENDCHAR
STARTCHAR afii10088
ENCODING 1094
SWIDTH 640 0
DWIDTH 4 0
BBX 4 6 0 -1
BITMAP
00
A0
A0
A0
E0
20
ENDCHAR
STARTCHAR afii10089
ENCODING 1095
SWIDTH 640 0
DWIDTH 4 0
BBX 4 6 0 -1
BITMAP
00
A0
A0
60
20
00
ENDCHAR
STARTCHAR afii10090
ENCODING 1096
SWIDTH 640 0
DWIDTH 4 0
BBX 4 6 0 -1
BITMAP
00
A0
E0
E0
E0
00
ENDCHAR
STARTCHAR afii10091
ENCODING 1097
SWIDTH 640 0
DWIDTH 4 0
BBX 4 6 0 -1
BITMAP
00
A0
E0
E0
F0
10
ENDCHAR
STARTCHAR afii10092
ENCODING 1098
SWIDTH 640 0
DWIDTH 4 0
BBX 4 6 0 -1
BITMAP
00
C0
60
50
60
00
ENDCHAR
STARTCHAR afii10093
ENCODING 1099
SWIDTH 640 0
DWIDTH 4 0
BBX 4 6 0 -1
BITMAP
00
90
D0
B0
D0
00
ENDCHAR
STARTCHAR afii10094
ENCODING 1100
SWIDTH 640 0
DWIDTH 4 0
BBX 4 6 0 -1
BITMAP
00
80
C0
A0
C0
00
ENDCHAR
STARTCHAR afii10095
ENCODING 1101
SWIDTH 640 0
DWIDTH 4 0
BBX 4 6 0 -1
BITMAP
00
C0
60
20
C0
00
ENDCHAR
STARTCHAR afii10096
ENCODING 1102
SWIDTH 640 0
DWIDTH 4 0
BBX 4 6 0 -1
BITMAP
00
A0
D0
D0
A0
00
ENDCHAR
STARTCHAR afii10097
ENCODING 1103
SWIDTH 640 0
DWIDTH 4 0
BBX 4 6 0 -1
BITMAP
00
60
A0
60
A0
00
ENDCHAR
STARTCHAR afii10071
ENCODING 1105
SWIDTH 640 0
DWIDTH 4 0
BBX 4 6 0 -1
BITMAP
A0
40
A0
C0
60
00
ENDCHAR
STARTCHAR afii10099
ENCODING 1106
SWIDTH 640 0
DWIDTH 4 0
BBX 4 6 0 -1
BITMAP
80
C0
80
C0
A0
20
ENDCHAR
STARTCHAR afii10100
ENCODING 1107
SWIDTH 640 0
DWIDTH 4 0
BBX 4 6 0 -1
BITMAP
20
40
E0
80
80
00
ENDCHAR
STARTCHAR afii10101
ENCODING 1108
SWIDTH 640 0
DWIDTH 4 0
BBX 4 6 0 -1
BITMAP
00
60
C0
80
60
00
ENDCHAR
STARTCHAR afii10102
ENCODING 1109
SWIDTH 640 0
DWIDTH 4 0
BBX 4 6 0 -1
BITMAP
00
60
C0
20
C0
00
ENDCHAR
STARTCHAR afii10103
ENCODING 1110
SWIDTH 640 0
DWIDTH 4 0
BBX 4 6 0 -1
BITMAP
40
00
C0
40
E0
00
ENDCHAR
STARTCHAR afii10104
ENCODING 1111
SWIDTH 640 0
DWIDTH 4 0
BBX 4 6 0 -1
BITMAP
A0
00
C0
40
E0
00
ENDCHAR
STARTCHAR afii10105
ENCODING 1112
SWIDTH 640 0
DWIDTH 4 0
BBX 4 6 0 -1
BITMAP
20
00
20
20
20
C0
ENDCHAR
STARTCHAR afii10106
ENCODING 1113
SWIDTH 640 0
DWIDTH 4 0
BBX 4 6 0 -1
BITMAP
00
60
A0
B0
B0
00
ENDCHAR
STARTCHAR afii10107
ENCODING 1114
SWIDTH 640 0
DWIDTH 4 0
BBX 4 6 0 -1
BITMAP
00
A0
E0
B0
B0
00
ENDCHAR
STARTCHAR afii10108
ENCODING 1115
SWIDTH 640 0
DWIDTH 4 0
BBX 4 6 0 -1
BITMAP
80
C0
80
C0
A0
00
ENDCHAR
STARTCHAR afii10109
ENCODING 1116
SWIDTH 640 0
DWIDTH 4 0
BBX 4 6 0 -1
BITMAP
20
80
A0
C0
A0
00
ENDCHAR
STARTCHAR afii10110
ENCODING 1118
SWIDTH 640 0
DWIDTH 4 0
BBX 4 6 0 -1
BITMAP
A0
40
00
A0
40
80
ENDCHAR
STARTCHAR afii10193
ENCODING 1119
SWIDTH 640 0
DWIDTH 4 0
BBX 4 6 0 -1
BITMAP
00
A0
A0
A0
E0
40
ENDCHAR
ENDFONT
