STARTFONT 2.1
COMMENT Trimmed to U+0400..U+045F for the panel by tools/fonts/mksysfont.py
COMMENT Source: https://gitlab.freedesktop.org/xorg/font/misc-misc/-/raw/master/6x10.bdf
COMMENT Fetched 2026-09-23. The font is in the public domain (its COPYRIGHT property).
COMMENT "$ucs-fonts: 6x10.bdf,v 1.35 2006-01-05 20:03:17+00 mgk25 Rel $"
COMMENT "Send bug reports to Markus Kuhn <http://www.cl.cam.ac.uk/~mgk25/>"
FONT -Misc-Fixed-Medium-R-Normal--10-100-75-75-C-60-ISO10646-1
SIZE 10 75 75
FONTBOUNDINGBOX 6 10 0 -2
STARTPROPERTIES 22
FONTNAME_REGISTRY ""
FOUNDRY "Misc"
FAMILY_NAME "Fixed"
WEIGHT_NAME "Medium"
SLANT "R"
SETWIDTH_NAME "Normal"
ADD_STYLE_NAME ""
PIXEL_SIZE 10
POINT_SIZE 100
RESOLUTION_X 75
RESOLUTION_Y 75
SPACING "C"
AVERAGE_WIDTH 60
CHARSET_REGISTRY "ISO10646"
CHARSET_ENCODING "1"
FONT_ASCENT 8
FONT_DESCENT 2
DEFAULT_CHAR 0
COPYRIGHT "Public domain terminal emulator font.  Share and enjoy."
_XMBDFED_INFO "Edited with xmbdfed 4.5."
CAP_HEIGHT 7
X_HEIGHT 5
ENDPROPERTIES
CHARS 92
STARTCHAR afii10023
ENCODING 1025
SWIDTH 576 0
DWIDTH 6 0
BBX 6 10 0 -2
BITMAP
50
00
F8
80
F0
80
80
F8
00
00
ENDCHAR
STARTCHAR afii10051
ENCODING 1026
SWIDTH 576 0
DWIDTH 6 0
BBX 6 10 0 -2
BITMAP
00
E0
40
40
70
48
48
48
08
30
ENDCHAR
STARTCHAR afii10052
ENCODING 1027
SWIDTH 576 0
DWIDTH 6 0
BBX 6 10 0 -2
BITMAP
10
20
F8
80
80
80
80
80
00
00
ENDCHAR
STARTCHAR afii10053
ENCODING 1028
SWIDTH 576 0
DWIDTH 6 0
BBX 6 10 0 -2
BITMAP
00
70
88
80
E0
80
88
70
00
00
ENDCHAR
STARTCHAR afii10054
ENCODING 1029
SWIDTH 576 0
DWIDTH 6 0
BBX 6 10 0 -2
BITMAP
00
70
88
80
70
08
88
70
00
00
ENDCHAR
STARTCHAR afii10055
ENCODING 1030
SWIDTH 576 0
DWIDTH 6 0
BBX 6 10 0 -2
BITMAP
00
70
20
20
20
20
20
70
00
00
ENDCHAR
STARTCHAR afii10056
ENCODING 1031
SWIDTH 576 0
DWIDTH 6 0
BBX 6 10 0 -2
BITMAP
50
00
70
20
20
20
20
70
00
00
ENDCHAR
STARTCHAR afii10057
ENCODING 1032
SWIDTH 576 0
DWIDTH 6 0
BBX 6 10 0 -2
BITMAP
00
38
08
08
08
08
88
70
00
00
ENDCHAR
STARTCHAR afii10058
ENCODING 1033
SWIDTH 576 0
DWIDTH 6 0
BBX 6 10 0 -2
BITMAP
00
30
50
50
98
94
94
98
00
00
ENDCHAR
STARTCHAR afii10059
ENCODING 1034
SWIDTH 576 0
DWIDTH 6 0
BBX 6 10 0 -2
BITMAP
00
A0
A0
A0
F0
A8
A8
B0
00
00
ENDCHAR
STARTCHAR afii10060
ENCODING 1035
SWIDTH 576 0
DWIDTH 6 0
BBX 6 10 0 -2
BITMAP
00
E0
40
40
70
48
48
48
00
00
ENDCHAR
STARTCHAR afii10061
ENCODING 1036
SWIDTH 576 0
DWIDTH 6 0
BBX 6 10 0 -2
BITMAP
10
20
88
90
E0
90
88
88
00
00
ENDCHAR
STARTCHAR afii10062
ENCODING 1038
SWIDTH 576 0
DWIDTH 6 0
BBX 6 10 0 -2
BITMAP
50
20
88
88
50
20
40
80
00
00
ENDCHAR
STARTCHAR afii10145
ENCODING 1039
SWIDTH 576 0
DWIDTH 6 0
BBX 6 10 0 -2
BITMAP
00
88
88
88
88
88
88
F8
20
00
ENDCHAR
STARTCHAR afii10017
ENCODING 1040
SWIDTH 576 0
DWIDTH 6 0
BBX 6 10 0 -2
BITMAP
00
20
50
88
88
F8
88
88
00
00
ENDCHAR
STARTCHAR afii10018
ENCODING 1041
SWIDTH 576 0
DWIDTH 6 0
BBX 6 10 0 -2
BITMAP
00
F0
80
80
F0
88
88
F0
00
00
ENDCHAR
STARTCHAR afii10019
ENCODING 1042
SWIDTH 576 0
DWIDTH 6 0
BBX 6 10 0 -2
BITMAP
00
F0
88
88
F0
88
88
F0
00
00
ENDCHAR
STARTCHAR afii10020
ENCODING 1043
SWIDTH 576 0
DWIDTH 6 0
BBX 6 10 0 -2
BITMAP
00
F8
80
80
80
80
80
80
00
00
ENDCHAR
STARTCHAR afii10021
ENCODING 1044
SWIDTH 576 0
DWIDTH 6 0
BBX 6 10 0 -2
BITMAP
00
18
28
28
48
48
48
F8
88
00
ENDCHAR
STARTCHAR afii10022
ENCODING 1045
SWIDTH 576 0
DWIDTH 6 0
BBX 6 10 0 -2
BITMAP
00
F8
80
80
F0
80
80
F8
00
00
ENDCHAR
STARTCHAR afii10024
ENCODING 1046
SWIDTH 576 0
DWIDTH 6 0
BBX 6 10 0 -2
BITMAP
00
A8
A8
A8
70
A8
A8
A8
00
00
ENDCHAR
STARTCHAR afii10025
ENCODING 1047
SWIDTH 576 0
DWIDTH 6 0
BBX 6 10 0 -2
BITMAP
00
70
88
08
30
08
88
70
00
00
ENDCHAR
STARTCHAR afii10026
ENCODING 1048
SWIDTH 576 0
DWIDTH 6 0
BBX 6 10 0 -2
BITMAP
00
88
88
98
A8
C8
88
88
00
00
ENDCHAR
STARTCHAR afii10027
ENCODING 1049
SWIDTH 576 0
DWIDTH 6 0
BBX 6 10 0 -2
BITMAP
50
20
88
98
A8
C8
88
88
00
00
ENDCHAR
STARTCHAR afii10028
ENCODING 1050
SWIDTH 576 0
DWIDTH 6 0
BBX 6 10 0 -2
BITMAP
00
88
90
A0
C0
A0
90
88
00
00
ENDCHAR
STARTCHAR afii10029
ENCODING 1051
SWIDTH 576 0
DWIDTH 6 0
BBX 6 10 0 -2
BITMAP
00
38
48
48
48
48
48
88
00
00
ENDCHAR
STARTCHAR afii10030
ENCODING 1052
SWIDTH 576 0
DWIDTH 6 0
BBX 6 10 0 -2
BITMAP
00
88
88
D8
A8
88
88
88
00
00
ENDCHAR
STARTCHAR afii10031
ENCODING 1053
SWIDTH 576 0
DWIDTH 6 0
BBX 6 10 0 -2
BITMAP
00
88
88
88
F8
88
88
88
00
00
ENDCHAR
STARTCHAR afii10032
ENCODING 1054
SWIDTH 576 0
DWIDTH 6 0
BBX 6 10 0 -2
BITMAP
00
70
88
88
88
88
88
70
00
00
ENDCHAR
STARTCHAR afii10033
ENCODING 1055
SWIDTH 576 0
DWIDTH 6 0
BBX 6 10 0 -2
BITMAP
00
F8
88
88
88
88
88
88
00
00
ENDCHAR
STARTCHAR afii10034
ENCODING 1056
SWIDTH 576 0
DWIDTH 6 0
BBX 6 10 0 -2
BITMAP
00
F0
88
88
F0
80
80
80
00
00
ENDCHAR
STARTCHAR afii10035
ENCODING 1057
SWIDTH 576 0
DWIDTH 6 0
BBX 6 10 0 -2
BITMAP
00
70
88
80
80
80
88
70
00
00
ENDCHAR
STARTCHAR afii10036
ENCODING 1058
SWIDTH 576 0
DWIDTH 6 0
BBX 6 10 0 -2
BITMAP
00
F8
20
20
20
20
20
20
00
00
ENDCHAR
STARTCHAR afii10037
ENCODING 1059
SWIDTH 576 0
DWIDTH 6 0
BBX 6 10 0 -2
BITMAP
00
88
88
88
50
20
40
80
00
00
ENDCHAR
STARTCHAR afii10038
ENCODING 1060
SWIDTH 576 0
DWIDTH 6 0
BBX 6 10 0 -2
BITMAP
00
20
70
A8
A8
A8
70
20
00
00
ENDCHAR
STARTCHAR afii10039
ENCODING 1061
SWIDTH 576 0
DWIDTH 6 0
BBX 6 10 0 -2
BITMAP
00
88
88
50
20
50
88
88
00
00
ENDCHAR
STARTCHAR afii10040
ENCODING 1062
SWIDTH 576 0
DWIDTH 6 0
BBX 6 10 0 -2
BITMAP
00
90
90
90
90
90
90
F8
08
08
ENDCHAR
STARTCHAR afii10041
ENCODING 1063
SWIDTH 576 0
DWIDTH 6 0
BBX 6 10 0 -2
BITMAP
00
88
88
88
78
08
08
08
00
00
ENDCHAR
STARTCHAR afii10042
ENCODING 1064
SWIDTH 576 0
DWIDTH 6 0
BBX 6 10 0 -2
BITMAP
00
A8
A8
A8
A8
A8
A8
F8
00
00
ENDCHAR
STARTCHAR afii10043
ENCODING 1065
SWIDTH 576 0
DWIDTH 6 0
BBX 6 10 0 -2
BITMAP
00
A8
A8
A8
A8
A8
A8
F8
08
08
ENDCHAR
STARTCHAR afii10044
ENCODING 1066
SWIDTH 576 0
DWIDTH 6 0
BBX 6 10 0 -2
BITMAP
00
C0
40
40
70
48
48
70
00
00
ENDCHAR
STARTCHAR afii10045
ENCODING 1067
SWIDTH 576 0
DWIDTH 6 0
BBX 6 10 0 -2
BITMAP
00
88
88
88
E8
98
98
E8
00
00
ENDCHAR
STARTCHAR afii10046
ENCODING 1068
SWIDTH 576 0
DWIDTH 6 0
BBX 6 10 0 -2
BITMAP
00
40
40
40
70
48
48
70
00
00
ENDCHAR
STARTCHAR afii10047
ENCODING 1069
SWIDTH 576 0
DWIDTH 6 0
BBX 6 10 0 -2
BITMAP
00
70
88
08
38
08
88
70
00
00
ENDCHAR
STARTCHAR afii10048
ENCODING 1070
SWIDTH 576 0
DWIDTH 6 0
BBX 6 10 0 -2
BITMAP
00
90
A8
A8
E8
A8
A8
90
00
00
ENDCHAR
STARTCHAR afii10049
ENCODING 1071
SWIDTH 576 0
DWIDTH 6 0
BBX 6 10 0 -2
BITMAP
00
78
88
88
78
28
48
88
00
00
ENDCHAR
STARTCHAR afii10065
ENCODING 1072
SWIDTH 576 0
DWIDTH 6 0
BBX 6 10 0 -2
BITMAP
00
00
00
70
08
78
88
78
00
00
ENDCHAR
STARTCHAR afii10066
ENCODING 1073
SWIDTH 576 0
DWIDTH 6 0
BBX 6 10 0 -2
BITMAP
00
78
80
70
88
88
88
70
00
00
ENDCHAR
STARTCHAR afii10067
ENCODING 1074
SWIDTH 576 0
DWIDTH 6 0
BBX 6 10 0 -2
BITMAP
00
00
00
F0
88
F0
88
F0
00
00
ENDCHAR
STARTCHAR afii10068
ENCODING 1075
SWIDTH 576 0
DWIDTH 6 0
BBX 6 10 0 -2
BITMAP
00
00
00
78
40
40
40
40
00
00
ENDCHAR
STARTCHAR afii10069
ENCODING 1076
SWIDTH 576 0
DWIDTH 6 0
BBX 6 10 0 -2
BITMAP
00
00
00
30
50
50
50
F8
88
00
ENDCHAR
STARTCHAR afii10070
ENCODING 1077
SWIDTH 576 0
DWIDTH 6 0
BBX 6 10 0 -2
BITMAP
00
00
00
70
88
F8
80
70
00
00
ENDCHAR
STARTCHAR afii10072
ENCODING 1078
SWIDTH 576 0
DWIDTH 6 0
BBX 6 10 0 -2
BITMAP
00
00
00
A8
A8
70
A8
A8
00
00
ENDCHAR
STARTCHAR afii10073
ENCODING 1079
SWIDTH 576 0
DWIDTH 6 0
BBX 6 10 0 -2
BITMAP
00
00
00
70
88
30
88
70
00
00
ENDCHAR
STARTCHAR afii10074
ENCODING 1080
SWIDTH 576 0
DWIDTH 6 0
BBX 6 10 0 -2
BITMAP
00
00
00
88
98
A8
C8
88
00
00
ENDCHAR
STARTCHAR afii10075
ENCODING 1081
SWIDTH 576 0
DWIDTH 6 0
BBX 6 10 0 -2
BITMAP
00
50
20
88
98
A8
C8
88
00
00
ENDCHAR
STARTCHAR afii10076
ENCODING 1082
SWIDTH 576 0
DWIDTH 6 0
BBX 6 10 0 -2
BITMAP
00
00
00
88
90
E0
90
88
00
00
ENDCHAR
STARTCHAR afii10077
ENCODING 1083
SWIDTH 576 0
DWIDTH 6 0
BBX 6 10 0 -2
BITMAP
00
00
00
38
48
48
48
88
00
00
ENDCHAR
STARTCHAR afii10078
ENCODING 1084
SWIDTH 576 0
DWIDTH 6 0
BBX 6 10 0 -2
BITMAP
00
00
00
88
D8
A8
88
88
00
00
ENDCHAR
STARTCHAR afii10079
ENCODING 1085
SWIDTH 576 0
DWIDTH 6 0
BBX 6 10 0 -2
BITMAP
00
00
00
88
88
F8
88
88
00
00
ENDCHAR
STARTCHAR afii10080
ENCODING 1086
SWIDTH 576 0
DWIDTH 6 0
BBX 6 10 0 -2
BITMAP
00
00
00
70
88
88
88
70
00
00
ENDCHAR
STARTCHAR afii10081
ENCODING 1087
SWIDTH 576 0
DWIDTH 6 0
BBX 6 10 0 -2
BITMAP
00
00
00
F8
88
88
88
88
00
00
ENDCHAR
STARTCHAR afii10082
ENCODING 1088
SWIDTH 576 0
DWIDTH 6 0
BBX 6 10 0 -2
BITMAP
00
00
00
B0
C8
88
C8
B0
80
80
ENDCHAR
STARTCHAR afii10083
ENCODING 1089
SWIDTH 576 0
DWIDTH 6 0
BBX 6 10 0 -2
BITMAP
00
00
00
70
88
80
88
70
00
00
ENDCHAR
STARTCHAR afii10084
ENCODING 1090
SWIDTH 576 0
DWIDTH 6 0
BBX 6 10 0 -2
BITMAP
00
00
00
F8
20
20
20
20
00
00
ENDCHAR
STARTCHAR afii10085
ENCODING 1091
SWIDTH 576 0
DWIDTH 6 0
BBX 6 10 0 -2
BITMAP
00
00
00
88
88
88
78
08
88
70
ENDCHAR
STARTCHAR afii10086
ENCODING 1092
SWIDTH 576 0
DWIDTH 6 0
BBX 6 10 0 -2
BITMAP
00
20
20
70
A8
A8
A8
70
20
20
ENDCHAR
STARTCHAR afii10087
ENCODING 1093
SWIDTH 576 0
DWIDTH 6 0
BBX 6 10 0 -2
BITMAP
00
00
00
88
50
20
50
88
00
00
ENDCHAR
STARTCHAR afii10088
ENCODING 1094
SWIDTH 576 0
DWIDTH 6 0
BBX 6 10 0 -2
BITMAP
00
00
00
90
90
90
90
F8
08
08
ENDCHAR
STARTCHAR afii10089
ENCODING 1095
SWIDTH 576 0
DWIDTH 6 0
BBX 6 10 0 -2
BITMAP
00
00
00
88
88
78
08
08
00
00
ENDCHAR
STARTCHAR afii10090
ENCODING 1096
SWIDTH 576 0
DWIDTH 6 0
BBX 6 10 0 -2
BITMAP
00
00
00
A8
A8
A8
A8
F8
00
00
ENDCHAR
STARTCHAR afii10091
ENCODING 1097
SWIDTH 576 0
DWIDTH 6 0
BBX 6 10 0 -2
BITMAP
00
00
00
A8
A8
A8
A8
F8
08
08
ENDCHAR
STARTCHAR afii10092
ENCODING 1098
SWIDTH 576 0
DWIDTH 6 0
BBX 6 10 0 -2
BITMAP
00
00
00
C0
40
70
48
70
00
00
ENDCHAR
STARTCHAR afii10093
ENCODING 1099
SWIDTH 576 0
DWIDTH 6 0
BBX 6 10 0 -2
BITMAP
00
00
00
88
88
E8
98
E8
00
00
ENDCHAR
STARTCHAR afii10094
ENCODING 1100
SWIDTH 576 0
DWIDTH 6 0
BBX 6 10 0 -2
BITMAP
00
00
00
40
40
70
48
70
00
00
ENDCHAR
STARTCHAR afii10095
ENCODING 1101
SWIDTH 576 0
DWIDTH 6 0
BBX 6 10 0 -2
BITMAP
00
00
00
70
88
38
88
70
00
00
ENDCHAR
STARTCHAR afii10096
ENCODING 1102
SWIDTH 576 0
DWIDTH 6 0
BBX 6 10 0 -2
BITMAP
00
00
00
90
A8
E8
A8
90
00
00
ENDCHAR
STARTCHAR afii10097
ENCODING 1103
SWIDTH 576 0
DWIDTH 6 0
BBX 6 10 0 -2
BITMAP
00
00
00
78
88
78
88
88
00
00
ENDCHAR
STARTCHAR afii10071
ENCODING 1105
SWIDTH 576 0
DWIDTH 6 0
BBX 6 10 0 -2
BITMAP
00
50
00
70
88
F8
80
70
00
00
ENDCHAR
STARTCHAR afii10099
ENCODING 1106
SWIDTH 576 0
DWIDTH 6 0
BBX 6 10 0 -2
BITMAP
00
40
F0
40
70
48
48
48
08
30
ENDCHAR
STARTCHAR afii10100
ENCODING 1107
SWIDTH 576 0
DWIDTH 6 0
BBX 6 10 0 -2
BITMAP
10
20
00
78
40
40
40
40
00
00
ENDCHAR
STARTCHAR afii10101
ENCODING 1108
SWIDTH 576 0
DWIDTH 6 0
BBX 6 10 0 -2
BITMAP
00
00
00
30
48
60
48
30
00
00
ENDCHAR
STARTCHAR afii10102
ENCODING 1109
SWIDTH 576 0
DWIDTH 6 0
BBX 6 10 0 -2
BITMAP
00
00
00
70
80
70
08
F0
00
00
ENDCHAR
STARTCHAR afii10103
ENCODING 1110
SWIDTH 576 0
DWIDTH 6 0
BBX 6 10 0 -2
BITMAP
00
20
00
60
20
20
20
70
00
00
ENDCHAR
STARTCHAR afii10104
ENCODING 1111
SWIDTH 576 0
DWIDTH 6 0
BBX 6 10 0 -2
BITMAP
00
50
00
60
20
20
20
70
00
00
ENDCHAR
STARTCHAR afii10105
ENCODING 1112
SWIDTH 576 0
DWIDTH 6 0
BBX 6 10 0 -2
BITMAP
00
08
00
18
08
08
08
48
48
30
ENDCHAR
STARTCHAR afii10106
ENCODING 1113
SWIDTH 576 0
DWIDTH 6 0
BBX 6 10 0 -2
BITMAP
00
00
00
30
50
98
94
98
00
00
ENDCHAR
STARTCHAR afii10107
ENCODING 1114
SWIDTH 576 0
DWIDTH 6 0
BBX 6 10 0 -2
BITMAP
00
00
00
A0
A0
F0
A8
B0
00
00
ENDCHAR
STARTCHAR afii10108
ENCODING 1115
SWIDTH 576 0
DWIDTH 6 0
BBX 6 10 0 -2
BITMAP
00
40
F0
40
70
48
48
48
00
00
ENDCHAR
STARTCHAR afii10109
ENCODING 1116
SWIDTH 576 0
DWIDTH 6 0
BBX 6 10 0 -2
BITMAP
00
10
20
88
90
E0
90
88
00
00
ENDCHAR
STARTCHAR afii10110
ENCODING 1118
SWIDTH 576 0
DWIDTH 6 0
BBX 6 10 0 -2
BITMAP
00
50
20
88
88
98
68
08
88
70
ENDCHAR
STARTCHAR afii10193
ENCODING 1119
SWIDTH 576 0
DWIDTH 6 0
BBX 6 10 0 -2
BITMAP
00
00
00
88
88
88
88
F8
20
00
ENDCHAR
ENDFONT
